<?xml version="1.0" encoding="UTF-8"?><svg id="Layer_1" xmlns="http://www.w3.org/2000/svg" viewBox="0 0 1810 322.5"><defs><style>.cls-1{fill:#fff;}</style></defs><path class="cls-1" d="m-.62,1h254.56v52.03h-98.04v254.13h-58.48V53.03H-.62V1Z"/><path class="cls-1" d="m382.51,80.12c24.08,0,43.07,6.95,56.98,20.85,13.9,13.91,20.85,33.61,20.85,59.12v147.06h-54.18v-138.03c0-28.09-13.91-42.14-41.71-42.14-13.76,0-25.44,4.94-35.04,14.83-9.61,9.89-14.41,23.58-14.41,41.07v124.27h-54.18V1h54.18v113.95c16.91-23.22,39.41-34.83,67.51-34.83Z"/><path class="cls-1" d="m687.81,200.09v12.9h-165.98c2,18.92,7.96,33.18,17.85,42.79,9.89,9.61,23.15,14.4,39.77,14.4,24.65,0,41.56-10.6,50.74-31.82h52.03c-5.74,22.65-17.78,40.63-36.12,53.96-18.35,13.33-40.71,20-67.08,20-32.97,0-59.63-10.6-79.98-31.82-20.36-21.21-30.53-49.3-30.53-84.28s10.03-63.06,30.1-84.28c20.35-21.21,46.87-31.82,79.55-31.82s60.2,11.04,79.98,33.11c19.78,22.08,29.67,51.03,29.67,86.86Zm-110.08-77.83c-31.82,0-50.31,17.63-55.47,52.89h111.37c-2.3-16.34-8.32-29.24-18.06-38.7-9.75-9.46-22.36-14.19-37.84-14.19Z"/><path class="cls-1" d="m890.34,280.5c-20.64,21.22-47.88,31.82-81.7,31.82s-61.06-10.6-81.7-31.82c-20.93-20.92-31.39-49.02-31.39-84.28s10.46-63.35,31.39-84.28c20.64-21.21,47.87-31.82,81.7-31.82s61.06,10.47,81.7,31.39c20.64,20.93,30.96,49.17,30.96,84.71s-10.32,63.07-30.96,84.28Zm-124.05-31.39c10.17,12.33,24.29,18.49,42.35,18.49s32.18-6.24,42.36-18.71c10.17-12.47,15.26-30.03,15.26-52.68s-5.09-40.2-15.26-52.67c-10.18-12.47-24.29-18.7-42.36-18.7s-32.18,6.17-42.35,18.49c-10.18,12.33-15.27,29.96-15.27,52.89s5.09,40.57,15.27,52.89Z"/><path class="cls-1" d="m1233.04,1v52.03h-158.24v72.24h144.05v49.88h-144.05v132.01h-58.05V1h216.29Z"/><path class="cls-1" d="m1423.96,280.5c-20.64,21.22-47.88,31.82-81.7,31.82s-61.06-10.6-81.7-31.82c-20.93-20.92-31.39-49.02-31.39-84.28s10.46-63.35,31.39-84.28c20.64-21.21,47.87-31.82,81.7-31.82s61.06,10.47,81.7,31.39c20.64,20.93,30.96,49.17,30.96,84.71s-10.32,63.07-30.96,84.28Zm-124.05-31.39c10.17,12.33,24.29,18.49,42.35,18.49s32.18-6.24,42.36-18.71c10.17-12.47,15.26-30.03,15.26-52.68s-5.09-40.2-15.26-52.67c-10.18-12.47-24.29-18.7-42.36-18.7s-32.18,6.17-42.35,18.49c-10.18,12.33-15.27,29.96-15.27,52.89s5.09,40.57,15.27,52.89Z"/><path class="cls-1" d="m1581.77,81.84c4.87,0,9.31.29,13.33.86v49.88h-13.76c-20.64,0-36.48,5.23-47.51,15.7-11.04,10.47-16.55,25.87-16.55,46.22v112.66h-54.18V85.28h52.46v39.56c12.32-28.66,34.4-43,66.22-43Z"/><path class="cls-1" d="m1755.49,114.09V1h54.18v306.16h-52.46v-30.96c-16.34,24.08-39.71,36.12-70.09,36.12s-54.9-10.6-72.67-31.82c-18.06-21.21-27.09-49.3-27.09-84.28s9.03-63.78,27.09-84.71c17.48-20.92,41.71-31.39,72.67-31.39s52.6,11.33,68.37,33.97Zm-112.66,83.85c0,22.94,5.01,40.28,15.05,52.03,10.03,11.76,23.93,17.63,41.71,17.63s31.82-6.16,42.14-18.49c10.03-12.32,15.05-29.95,15.05-52.89s-5.02-40.56-15.05-52.89c-10.04-12.32-24.08-18.49-42.14-18.49s-31.32,6.45-41.49,19.35c-10.18,12.9-15.27,30.82-15.27,53.75Z"/></svg>